<?xml version="1.0" encoding="UTF-8"?>
<svg width="32px" height="32px" viewBox="0 0 32 32" version="1.1" xmlns="http://www.w3.org/2000/svg">
    <title>pluginIcon_dark</title>
    <g id="pluginIcon_dark" stroke="none" fill="none">
        <path d="M16.3843861,5 C17.1554662,5 17.8332628,5.13680951 18.4179681,5.41044776 C19.0086359,5.68408601 19.4658217,6.08208955 19.7891406,6.60447761 C20.1188067,7.12065318 20.2836398,7.73009309 20.2836398,8.43283582 L20.2836398,14.7761194 L18.2500577,14.7761194 L18.231401,11.2033582 L18.7351323,11.2033582 C18.7351323,11.9931528 18.5920334,12.6741229 18.3060279,13.2462687 C18.0261771,13.8121826 17.6218841,14.2475188 17.0933413,14.5522388 C16.5646061,14.8507463 15.9397023,15 15.2182451,15 C14.6025735,15 14.0492191,14.8818472 13.5577974,14.6455224 C13.0727227,14.4091976 12.6903562,14.082705 12.4104478,13.6660448 C12.1368095,13.2493845 12,12.7767349 12,12.2481343 C12,11.7381905 12.130597,11.2686567 12.391791,10.8395522 C12.6591976,10.4104478 13.0261771,10.059086 13.492595,9.78544776 C13.9651677,9.51180951 14.4969803,9.34389906 15.0876481,9.28171642 L17.5876481,9.01119403 C17.7867172,8.99253731 17.9390483,8.92102631 18.0448338,8.79664179 C18.1567741,8.66604478 18.2127443,8.47636175 18.2127443,8.22761194 L18.3246846,10.3078358 L15.5634905,10.6156716 C15.2836398,10.6467726 15.0380251,10.7244961 14.8264541,10.8488806 C14.6150754,10.9670334 14.4502423,11.1287313 14.3321473,11.3339552 C14.2138598,11.5329666 14.1548123,11.7599438 14.1548123,12.0149254 C14.1548123,12.2885636 14.2263617,12.5311009 14.3694607,12.7425373 C14.5123673,12.9477612 14.7145138,13.1094591 14.9757078,13.2276119 C15.2369018,13.3457647 15.5354093,13.4048507 15.8712302,13.4048507 C16.3376481,13.4048507 16.7480959,13.314683 17.1025735,13.1343284 C17.4570511,12.9477612 17.730747,12.689683 17.923469,12.3600746 C18.1163833,12.0242537 18.2127443,11.6386752 18.2127443,11.2033582 L18.2127443,8.24626866 C18.2127443,7.92910448 18.13504,7.6523696 17.9794391,7.41604478 C17.8240306,7.17350746 17.6032274,6.9869403 17.3172219,6.85634328 C17.031024,6.72574627 16.7046276,6.66044776 16.3376481,6.66044776 C15.9708609,6.66044776 15.6411948,6.7226304 15.3488421,6.84701493 C15.0566818,6.97139945 14.8202993,7.13930989 14.6398869,7.35074627 C14.4596669,7.56218264 14.350804,7.7953916 14.3134905,8.05037313 L12.233209,8.05037313 C12.2953916,7.46580243 12.5130597,6.94341437 12.8861556,6.48320896 C13.265637,6.01679104 13.7568664,5.65298507 14.3600362,5.39179104 C14.969553,5.13059701 15.6442722,5 16.3843861,5 Z" id="Path" fill="#548AF7" fill-rule="nonzero"></path>
        <polygon id="Path" fill="#548AF7" fill-rule="nonzero" points="17.2734375 18.8554688 12.2539062 18.8554688 12.2539062 17 19.9004913 17 19.9004913 18.8164062 14.6270538 25.1445312 19.8809601 25.1445312 19.8809601 27 12 27 12 25.1835938"></polygon>
        <path d="M30.371301,23.664399 C30.7618407,23.2737993 30.7618407,22.6405997 30.371301,22.25 C29.9807813,21.8595803 29.3476217,21.8595803 28.957102,22.25 L26.9570988,23.8358024 L26.9999993,5.70720021 C26.9999993,5.15491989 26.5522996,4.70720021 26,4.70720021 C25.4477204,4.70720021 25.0000007,5.15491989 25.0000007,5.70720021 L24.9570802,23.8358024 L22.957102,22.25 C22.5665823,21.8595603 21.9334227,21.8595603 21.542903,22.25 C21.1523633,22.6405997 21.1523633,23.2737993 21.542903,23.664399 L25.2499982,26.9572002 C25.6405197,27.3475999 26.2736793,27.3475999 26.664199,26.9572002 L30.371301,23.664399 Z" id="Path" fill="#57965C" fill-rule="evenodd" transform="translate(25.9571, 15.9786) scale(1, -1) translate(-25.9571, -15.9786)"></path>
        <path d="M10.457102,23.7071988 C10.8476417,23.3165991 10.8476417,22.6833995 10.457102,22.2927998 C10.0665823,21.9023801 9.43342273,21.9023801 9.04290301,22.2927998 L7.04289979,23.8786022 L6.99999929,5.75 C6.99999929,5.19771968 6.55229961,4.75 6,4.75 C5.44772039,4.75 5.00000071,5.19771968 5.00000071,5.75 L5.04288122,23.8786022 L3.04290301,22.2927998 C2.65238328,21.9023601 2.01922374,21.9023601 1.62870402,22.2927998 C1.23816429,22.6833995 1.23816429,23.3165991 1.62870402,23.7071988 L5.33579922,27 C5.72632073,27.3903997 6.35948028,27.3903997 6.75,27 L10.457102,23.7071988 Z" id="Path" fill="#57965C" fill-rule="evenodd"></path>
    </g>
</svg>
