<?xml version="1.0" encoding="UTF-8"?>
<svg width="14px" height="14px" viewBox="0 0 14 14" version="1.1" xmlns="http://www.w3.org/2000/svg" xmlns:xlink="http://www.w3.org/1999/xlink">
    <title>descSort</title>
    <g id="descSort" stroke="none" fill="none" fill-rule="nonzero">
        <path d="M6.9729,7.89999 C7.3738,7.89999 7.7262,7.97112 8.0302,8.11339 C8.3373,8.25566 8.575,8.46259 8.7431,8.73419 C8.9145,9.00256 9.0002,9.31942 9.0002,9.68479 L9.0002,12.98279 L7.9429,12.98279 L7.9332,11.12524 L8.1951,11.12524 C8.1951,11.53587 8.1207,11.88992 7.972,12.18739 C7.8265,12.48162 7.6163,12.70796 7.3415,12.86639 C7.0666,13.02159 6.7417,13.09919 6.3666,13.09919 C6.0465,13.09919 5.7588,13.03776 5.5033,12.91489 C5.2511,12.79202 5.0523,12.62227 4.90677,12.40564 C4.7645,12.18901 4.69337,11.94327 4.69337,11.66844 C4.69337,11.40331 4.76127,11.15919 4.89707,10.93609 C5.0361,10.71299 5.2269,10.53031 5.4694,10.38804 C5.7151,10.24577 5.9916,10.15847 6.2987,10.12614 L7.5985,9.98549 C7.702,9.97579 7.7812,9.93861 7.8362,9.87394 C7.8944,9.80604 7.9235,9.70742 7.9235,9.57809 L7.9817,10.65964 L6.5461,10.81969 C6.4006,10.83586 6.2729,10.87627 6.1629,10.94094 C6.053,11.00237 5.9673,11.08644 5.9059,11.19314 C5.8444,11.29661 5.8137,11.41462 5.8137,11.54719 C5.8137,11.68946 5.8509,11.81556 5.9253,11.92549 C5.9996,12.03219 6.1047,12.11626 6.2405,12.17769 C6.3763,12.23912 6.5315,12.26984 6.7061,12.26984 C6.9486,12.26984 7.162,12.22296 7.3463,12.12919 C7.5306,12.03219 7.6729,11.89801 7.7731,11.72664 C7.8734,11.55204 7.9235,11.35157 7.9235,11.12524 L7.9235,9.58779 C7.9235,9.42289 7.8831,9.27901 7.8022,9.15614 C7.7214,9.03004 7.6066,8.93304 7.4579,8.86514 C7.3091,8.79724 7.1394,8.76329 6.9486,8.76329 C6.7579,8.76329 6.5865,8.79562 6.4345,8.86029 C6.2826,8.92496 6.1597,9.01226 6.0659,9.12219 C5.9722,9.23212 5.9156,9.35337 5.8962,9.48594 L4.81462,9.48594 C4.84695,9.18201 4.96012,8.91041 5.1541,8.67114 C5.3514,8.42864 5.6068,8.23949 5.9204,8.10369 C6.2373,7.96789 6.5881,7.89999 6.9729,7.89999 Z" id="Path" fill="#55A76A"></path>
        <polygon id="Path" fill="#55A76A" points="7.7049 1.9551 5.212 1.9551 5.212 1.0336 9.0096 1.0336 9.0096 1.9357 6.3906 5.0785 8.9999 5.0785 8.9999 6 5.0859 6 5.0859 5.0979"></polygon>
    </g>
</svg>