<?xml version="1.0" encoding="UTF-8"?>
<svg width="14px" height="14px" viewBox="0 0 14 14" version="1.1" xmlns="http://www.w3.org/2000/svg" xmlns:xlink="http://www.w3.org/1999/xlink">
    <title>noSort_dark</title>
    <g id="noSort_dark" stroke="none" fill="none" fill-rule="nonzero">
        <circle id="Oval" stroke="#C75450" stroke-width="0.2" fill="#C75450" cx="10.387" cy="12.21949" r="1"></circle>
        <path d="M11.15521,6.34918 C10.9775,6.246 10.7696,6.19118 10.52405,6.19118 C10.26776,6.19118 10.04858,6.24781 9.85962,6.35519 C9.67429,6.46251 9.52949,6.61229 9.42308,6.81008 C9.37369,6.90335 9.33565,7.0039 9.30937,7.11243 C9.29713,7.16297 9.28741,7.21538 9.2803,7.26971 C9.24761,7.51962 9.04608,7.75374 8.75538,7.75374 L8.68559,7.75374 C8.40277,7.75374 8.17659,7.51874 8.18738,7.23613 L8.18782,7.2247 C8.19406,7.15937 8.20294,7.09499 8.21384,7.03153 C8.25894,6.76878 8.34398,6.5234 8.46998,6.29711 L8.47082,6.2956 C8.67274,5.94024 8.95562,5.66307 9.3151,5.46896 C9.67501,5.27105 10.08211,5.17551 10.52941,5.17551 C10.96507,5.17551 11.3611,5.26708 11.71032,5.45757 C12.06135,5.64351 12.33753,5.90688 12.53326,6.24533 C12.7298,6.58518 12.82455,6.9712 12.82455,7.39574 C12.82455,7.72697 12.76997,8.03015 12.6538,8.29983 C12.54453,8.55351 12.40679,8.77358 12.23778,8.95527 L12.23697,8.95615 L11.64983,9.51585 C11.46348,9.6776 11.32173,9.80941 11.22207,9.91237 C11.13801,9.99934 11.06509,10.10292 11.00457,10.22395 L11.00365,10.22578 C10.95258,10.32536 10.92487,10.43986 10.92487,10.57436 C10.92487,10.83415 10.71427,11.04474 10.45449,11.04474 L10.34211,11.04474 C10.06755,11.04474 9.84498,10.82217 9.84498,10.54761 C9.84498,10.29425 9.89212,10.05822 9.99235,9.84471 C10.0849,9.64753 10.20155,9.47259 10.34319,9.32262 C10.47541,9.18284 10.64581,9.02199 10.85245,8.84072 C11.05921,8.65848 11.21964,8.50449 11.33619,8.37794 L11.33768,8.37634 L11.33865,8.37531 C11.4454,8.26263 11.53752,8.12405 11.61267,7.95809 L11.61397,7.95528 C11.68486,7.80498 11.72326,7.62911 11.72326,7.42249 C11.72326,7.17037 11.67065,6.95632 11.57207,6.77365 C11.4736,6.59119 11.33676,6.45167 11.15792,6.35071 L11.15521,6.34918 Z" id="Path" fill="#C75450"></path>
        <path d="M4.9729,0.89999 C5.3738,0.89999 5.7262,0.97112 6.0302,1.11339 C6.3373,1.25566 6.575,1.46259 6.7431,1.73419 C6.9145,2.00256 7.0002,2.31942 7.0002,2.68479 L7.0002,5.98279 L5.9429,5.98279 L5.9332,4.12524 L6.1951,4.12524 C6.1951,4.53587 6.1207,4.88992 5.972,5.18739 C5.8265,5.48162 5.6163,5.70796 5.3415,5.86639 C5.0666,6.02159 4.7417,6.09919 4.3666,6.09919 C4.0465,6.09919 3.7588,6.03776 3.5033,5.91489 C3.2511,5.79202 3.0523,5.62227 2.90677,5.40564 C2.7645,5.18901 2.69337,4.94327 2.69337,4.66844 C2.69337,4.40331 2.76127,4.15919 2.89707,3.93609 C3.0361,3.71299 3.2269,3.53031 3.4694,3.38804 C3.7151,3.24577 3.9916,3.15847 4.2987,3.12614 L5.5985,2.98549 C5.702,2.97579 5.7812,2.93861 5.8362,2.87394 C5.8944,2.80604 5.9235,2.70742 5.9235,2.57809 L5.9817,3.65964 L4.5461,3.81969 C4.4006,3.83586 4.2729,3.87627 4.1629,3.94094 C4.053,4.00237 3.9673,4.08644 3.9059,4.19314 C3.8444,4.29661 3.8137,4.41462 3.8137,4.54719 C3.8137,4.68946 3.8509,4.81556 3.9253,4.92549 C3.9996,5.03219 4.1047,5.11626 4.2405,5.17769 C4.3763,5.23912 4.5315,5.26984 4.7061,5.26984 C4.9486,5.26984 5.162,5.22296 5.3463,5.12919 C5.5306,5.03219 5.6729,4.89801 5.7731,4.72664 C5.8734,4.55204 5.9235,4.35157 5.9235,4.12524 L5.9235,2.58779 C5.9235,2.42289 5.8831,2.27901 5.8022,2.15614 C5.7214,2.03004 5.6066,1.93304 5.4579,1.86514 C5.3091,1.79724 5.1394,1.76329 4.9486,1.76329 C4.7579,1.76329 4.5865,1.79562 4.4345,1.86029 C4.2826,1.92496 4.1597,2.01226 4.0659,2.12219 C3.9722,2.23212 3.9156,2.35337 3.8962,2.48594 L2.81462,2.48594 C2.84695,2.18201 2.96012,1.91041 3.1541,1.67114 C3.3514,1.42864 3.6068,1.23949 3.9204,1.10369 C4.2373,0.96789 4.5881,0.89999 4.9729,0.89999 Z" id="Path" fill="#CED0D6"></path>
        <polygon id="Path" fill="#CED0D6" points="5.7049 8.9551 3.212 8.9551 3.212 8.0336 7.0096 8.0336 7.0096 8.9357 4.3906 12.0785 6.9999 12.0785 6.9999 13 3.0859 13 3.0859 12.0979"></polygon>
    </g>
</svg>