<?xml version="1.0" encoding="UTF-8"?>
<svg width="14px" height="14px" viewBox="0 0 14 14" version="1.1" xmlns="http://www.w3.org/2000/svg" xmlns:xlink="http://www.w3.org/1999/xlink">
    <title>ascSort</title>
    <g id="ascSort" stroke="none" fill="none" fill-rule="nonzero">
        <path d="M5.35355339,1.14644661 L7.70710678,3.54289322 C7.90236893,3.73815536 7.90236893,4.05473785 7.70710678,4.25 C7.51184464,4.44526215 7.19526215,4.44526215 7,4.25 L5.5,2.717 L5.5,12.5 C5.5,12.7761424 5.27614237,13 5,13 C4.72385763,13 4.5,12.7761424 4.5,12.5 L4.5,2.717 L3,4.25 C2.82643365,4.42356635 2.48815536,4.44526215 2.29289322,4.25 C2.09763107,4.05473785 2.09763107,3.73815536 2.29289322,3.54289322 L4.64644661,1.14644661 C4.84170876,0.951184464 5.15829124,0.951184464 5.35355339,1.14644661 Z" id="Arrow" fill="#CED0D7"></path>
        <path d="M12,8.5 C12.4454524,8.5 12.6685358,9.03857096 12.3535534,9.35355339 L10.206,11.5 L12,11.5 C12.2454599,11.5 12.4496084,11.6768752 12.4919443,11.9101244 L12.5,12 C12.5,12.2761424 12.2761424,12.5 12,12.5 L9,12.5 C8.55454757,12.5 8.33146418,11.961429 8.64644661,11.6464466 L10.793,9.5 L9,9.5 C8.75454011,9.5 8.55039163,9.32312484 8.50805567,9.08987563 L8.5,9 C8.5,8.72385763 8.72385763,8.5 9,8.5 L12,8.5 Z" id="z" fill="#57975B"></path>
        <path d="M12,3.5 C12.2761424,3.5 12.5,3.72385763 12.5,4 L12.5,7 C12.5,7.27614237 12.2761424,7.5 12,7.5 C11.8408894,7.5 11.6991371,7.42568028 11.6075637,7.30986148 C9.63807709,7.53540574 8.5,6.95635151 8.5,5.5 C8.5,4.48073814 9.27386959,3.75393483 10.2293238,3.66416037 L10.3739297,3.65551498 L10.5208153,3.65668346 C10.8852515,3.67186831 11.2193674,3.7746604 11.5051695,3.95327714 L11.5,4 C11.5,3.72385763 11.7238576,3.5 12,3.5 Z M10.4791847,4.65581654 C9.93055328,4.63295689 9.5,4.98577138 9.5,5.5 C9.5,6.19965493 10.0690188,6.49566455 11.500732,6.31791099 L11.5,6 C11.5,5.13507244 11.0750814,4.68064556 10.4791847,4.65581654 Z" id="a" fill="#57975B"></path>
    </g>
</svg>