<?xml version="1.0" encoding="UTF-8"?>
<svg width="14px" height="14px" viewBox="0 0 14 14" version="1.1" xmlns="http://www.w3.org/2000/svg" xmlns:xlink="http://www.w3.org/1999/xlink">
    <title>descSort_dark</title>
    <g id="descSort" stroke="none" fill="none" fill-rule="nonzero">
        <path d="M5.35355339,1.14644661 L7.70710678,3.54289322 C7.90236893,3.73815536 7.90236893,4.05473785 7.70710678,4.25 C7.51184464,4.44526215 7.19526215,4.44526215 7,4.25 L5.5,2.717 L5.5,12.5 C5.5,12.7761424 5.27614237,13 5,13 C4.72385763,13 4.5,12.7761424 4.5,12.5 L4.5,2.717 L3,4.25 C2.82643365,4.42356635 2.48815536,4.44526215 2.29289322,4.25 C2.09763107,4.05473785 2.09763107,3.73815536 2.29289322,3.54289322 L4.64644661,1.14644661 C4.84170876,0.951184464 5.15829124,0.951184464 5.35355339,1.14644661 Z" id="Arrow" fill="#CED0D7" transform="translate(5, 7) scale(1, -1) translate(-5, -7)"></path>
        <path d="M12,6.5 C12.2761424,6.5 12.5,6.72385763 12.5,7 L12.5,10 C12.5,10.2761424 12.2761424,10.5 12,10.5 C11.8408894,10.5 11.6991371,10.4256803 11.6075637,10.3098615 C9.63807709,10.5354057 8.5,9.95635151 8.5,8.5 C8.5,7.48073814 9.27386959,6.75393483 10.2293238,6.66416037 L10.3739297,6.65551498 L10.5208153,6.65668346 C10.8852515,6.67186831 11.2193674,6.7746604 11.5051695,6.95327714 L11.5,7 C11.5,6.72385763 11.7238576,6.5 12,6.5 Z M10.4791847,7.65581654 C9.93055328,7.63295689 9.5,7.98577138 9.5,8.5 C9.5,9.19965493 10.0690188,9.49566455 11.500732,9.31791099 L11.5,9 C11.5,8.13507244 11.0750814,7.68064556 10.4791847,7.65581654 Z" id="a" fill="#57975B"></path>
        <path d="M12,1.5 C12.4454524,1.5 12.6685358,2.03857096 12.3535534,2.35355339 L10.206,4.5 L12,4.5 C12.2454599,4.5 12.4496084,4.67687516 12.4919443,4.91012437 L12.5,5 C12.5,5.27614237 12.2761424,5.5 12,5.5 L9,5.5 C8.55454757,5.5 8.33146418,4.96142904 8.64644661,4.64644661 L10.793,2.5 L9,2.5 C8.75454011,2.5 8.55039163,2.32312484 8.50805567,2.08987563 L8.5,2 C8.5,1.72385763 8.72385763,1.5 9,1.5 L12,1.5 Z" id="z" fill="#57975B"></path>
    </g>
</svg>