<?xml version="1.0" encoding="UTF-8"?>
<svg width="14px" height="14px" viewBox="0 0 14 14" version="1.1" xmlns="http://www.w3.org/2000/svg" xmlns:xlink="http://www.w3.org/1999/xlink">
    <title>noSort</title>
    <g id="noSort" stroke="none" fill="none">
        <path d="M5.35355339,1.14644661 L7.70710678,3.54289322 C7.90236893,3.73815536 7.90236893,4.05473785 7.70710678,4.25 C7.51184464,4.44526215 7.19526215,4.44526215 7,4.25 L5.5,2.717 L5.5,12.5 C5.5,12.7761424 5.27614237,13 5,13 C4.72385763,13 4.5,12.7761424 4.5,12.5 L4.5,2.717 L3,4.25 C2.82643365,4.42356635 2.48815536,4.44526215 2.29289322,4.25 C2.09763107,4.05473785 2.09763107,3.73815536 2.29289322,3.54289322 L4.64644661,1.14644661 C4.84170876,0.951184464 5.15829124,0.951184464 5.35355339,1.14644661 Z" id="Arrow" fill="#CED0D7" fill-rule="nonzero"></path>
        <path d="M10.5,12 C10.7761424,12 11,11.7761424 11,11.5 C11,11.2238576 10.7761424,11 10.5,11 C10.2238576,11 10,11.2238576 10,11.5 C10,11.7761424 10.2238576,12 10.5,12 Z M10.5,4.5 C10.8291062,4.5 11.0212719,4.5170814 11.269225,4.59973243 C12.0620194,4.86399721 12.5,5.64262947 12.5,7 C12.5,7.76040048 12.0422756,8.46574976 11.1743125,9.13256049 L11,9.261 L11,10 C11,10.2454599 10.8231248,10.4496084 10.5898756,10.4919443 L10.5,10.5 C10.2238576,10.5 10,10.2761424 10,10 L10,9 C10,8.83282341 10.0835506,8.67670774 10.2226499,8.58397485 C11.0978441,8.00051203 11.5,7.46430421 11.5,7 C11.5,6.03638288 11.288408,5.66021931 10.9529972,5.54841572 C10.837314,5.50985463 10.7264494,5.5 10.5,5.5 C10.2735506,5.5 10.162686,5.50985463 10.0470028,5.54841572 C9.71159201,5.66021931 9.5,6.03638288 9.5,7 C9.5,7.27614237 9.27614237,7.5 9,7.5 C8.72385763,7.5 8.5,7.27614237 8.5,7 C8.5,5.64262947 8.93798064,4.86399721 9.73077501,4.59973243 C9.97872809,4.5170814 10.1708938,4.5 10.5,4.5 Z" id="?" fill="#F2C45C" fill-rule="evenodd"></path>
    </g>
</svg>