<?xml version="1.0" encoding="UTF-8"?>
<svg width="14px" height="14px" viewBox="0 0 14 14" version="1.1" xmlns="http://www.w3.org/2000/svg" xmlns:xlink="http://www.w3.org/1999/xlink">
    <title>noSort_dark</title>
    <g id="noSort_dark" stroke="none" fill="none" fill-rule="evenodd" stroke-width="1">
        <g id="Z" transform="translate(0.5664, 7.2734)" fill="#AFB1B3">
            <polygon id="Path" fill-rule="nonzero" points="0.774355792 -0.2734375 6.18359375 -0.2734375 6.18359375 0.925743946 4.45176965 2.70132676 2.75853983 4.43734013 5.93359375 4.4765625 5.93359375 5.76578487 0.43359375 5.7265625 0.43359375 4.48236059 3.94042337 1.00759933 0.774355792 1.00759933"></polygon>
        </g>
        <g id="A" transform="translate(1, -3)" fill="#AFB1B3">
            <path d="M4.109375,8.0546875 L2.09375,8.0546875 L1.81640625,9 L0.0078125,9 L2.16015625,3.2734375 L4.08984375,3.2734375 L6.2421875,9 L4.390625,9 L4.109375,8.0546875 Z M3.73828125,6.81640625 L3.10546875,4.7578125 L2.4765625,6.81640625 L3.73828125,6.81640625 Z" id="Shape" fill-rule="nonzero"></path>
        </g>
        <g id="?" transform="translate(8, 7)" fill="#C75450">
            <path d="M3.22171946,4.14889336 L1.50226244,4.14889336 L1.50226244,3.99597586 C1.50226244,3.73574782 1.53544495,3.52448021 1.60180995,3.36217304 C1.66817496,3.19986586 1.76696833,3.05164319 1.89819005,2.91750503 C2.02941176,2.78336687 2.32428356,2.5472837 2.78280543,2.20925553 C3.02714932,2.03219316 3.14932127,1.86988598 3.14932127,1.722334 C3.14932127,1.57478203 3.10030166,1.4600939 3.00226244,1.37826962 C2.90422323,1.29644534 2.75565611,1.2555332 2.55656109,1.2555332 C2.34238311,1.2555332 2.16515837,1.31857814 2.02488688,1.44466801 C1.88461538,1.57075788 1.79487179,1.79074447 1.75565611,2.10462777 L0,1.91146881 C0.060331825,1.33735748 0.294871795,0.875251509 0.70361991,0.525150905 C1.11236802,0.175050302 1.73906486,0 2.58371041,0 C3.2413273,0 3.77224736,0.122065728 4.17647059,0.366197183 C4.7254902,0.696177062 5,1.13615023 5,1.6861167 C5,1.91415158 4.92911011,2.13413816 4.78733032,2.34607646 C4.64555053,2.55801476 4.35595777,2.81690141 3.91855204,3.12273642 C3.61387632,3.33735748 3.42156863,3.50972502 3.34162896,3.63983903 C3.26168929,3.76995305 3.22171946,3.93963783 3.22171946,4.14889336 Z M1.44343891,4.55533199 L3.28506787,4.55533199 L3.28506787,6 L1.44343891,6 L1.44343891,4.55533199 Z" id="Shape" fill-rule="nonzero"></path>
        </g>
    </g>
</svg>